<svg width="164" height="265" viewBox="0 0 164 265" fill="none" xmlns="http://www.w3.org/2000/svg">
<path d="M0 148C10.15 148 17.5 146.6 22.05 143.8C31.5 137.5 30.45 95.95 30.45 63.4H49L50.05 120C50.05 144.5 24.85 148 15.05 148H100.25V155.7H50.05V194.5C50.05 233 71.9001 257.85 100.25 257.85V264.5C64.9001 264.5 30.45 255.05 30.45 194.5V155.7H0V148Z" fill="black"/>
<path d="M56.8501 135.6C72.0501 135.6 73.2501 132 73.2501 116.8V24.4C73.2501 10 67.4501 9.8 56.8501 12.6V9L79.2501 0L84.4501 3.2V12.2L85.4501 56.4C92.6501 45.6 101.45 41.2 114.25 41.2C131.05 41.2 146.65 53.6 146.65 73.2V116.8C146.65 130.4 147.05 135.6 163.05 135.6V139.2H119.65V135.6C134.85 135.6 135.45 132 135.45 116.8V77.4C135.45 60 125.85 46.8 110.65 46.8C98.8501 46.8 90.2501 52.4 84.4501 63.4V116.8C84.4501 130.4 84.6501 135.6 100.25 135.6V139.2H56.8501V135.6Z" fill="black"/>
</svg>
