<svg width="797" height="169" viewBox="0 0 797 169" fill="none" xmlns="http://www.w3.org/2000/svg">
<g clip-path="url(#clip0_572_13)">
<path d="M0 77.0793C5.55601 77.0793 9.57933 76.3133 12.07 74.7813C17.2428 71.3343 17.2428 61.5677 17.2428 43.7583H27.3969V61.7592C27.3969 75.1643 13.6026 77.0793 8.23822 77.0793H51.3452V81.2924H27.3969V128.402C27.3969 149.467 39.6584 165.361 55.1769 165.361V169C35.8267 169 16.668 161.531 16.668 128.402V81.2924H0V77.0793Z" fill="#1D2729"/>
<path d="M84.2981 77.0793L89.2793 80.1433V92.2079C96.368 80.7178 106.522 75.1643 116.868 75.1643C128.171 75.1643 137.368 81.4838 137.368 87.6119C137.368 91.6334 135.26 93.7399 131.237 93.7399C121.466 93.7399 121.657 82.0583 110.354 82.0583C102.882 82.0583 95.2185 88.5694 89.2793 98.719V147.552C89.2793 160.574 89.4709 165.553 104.415 165.553V169H62.8404V165.553C77.401 165.553 78.5505 162.106 78.5505 147.552V103.315C78.5505 86.6544 72.9945 86.4629 62.8404 89.1439V85.6969L84.2981 77.0793Z" fill="#1D2729"/>
<path d="M189.096 169C165.722 169 145.031 147.743 145.031 121.125C145.031 94.6974 163.423 73.2493 189.096 73.2493C207.488 73.2493 224.348 85.3139 224.348 103.698C224.348 110.592 222.815 113.848 216.876 113.848H158.059C157.484 153.68 174.344 162.297 191.97 162.297C208.446 162.297 223.39 148.701 223.39 128.785H227.413C227.413 149.658 211.895 169 189.096 169ZM205.764 110.018C210.362 110.018 212.086 107.145 212.086 101.783C212.086 84.9309 199.633 76.5048 189.096 76.5048C174.727 76.5048 162.274 90.6759 158.634 110.018H205.764Z" fill="#1D2729"/>
<path d="M279.142 169C255.768 169 235.077 147.743 235.077 121.125C235.077 94.6974 253.469 73.2493 279.142 73.2493C297.534 73.2493 314.394 85.3139 314.394 103.698C314.394 110.592 312.861 113.848 306.922 113.848H248.105C247.53 153.68 264.389 162.297 282.015 162.297C298.492 162.297 313.436 148.701 313.436 128.785H317.459C317.459 149.658 301.94 169 279.142 169ZM295.81 110.018C300.408 110.018 302.132 107.145 302.132 101.783C302.132 84.9309 289.679 76.5048 279.142 76.5048C264.773 76.5048 252.319 90.6759 248.679 110.018H295.81Z" fill="#1D2729"/>
<path d="M313.436 128.88C325.697 128.88 327.613 125.433 327.613 112.22V24.5122C327.613 11.4901 322.249 11.2986 313.436 13.4051V9.00057L336.809 0L345.239 3.06403V22.4057L346.197 54.1949C353.286 44.4283 362.29 39.4493 374.935 39.4493C391.603 39.4493 406.93 51.3224 406.93 71.6215V111.837C406.93 123.327 408.079 128.88 421.107 128.88V133.285H375.701V128.88C387.963 128.88 389.304 124.859 389.304 111.837V74.494C389.304 58.9824 381.832 48.0669 368.229 48.0669C358.075 48.0669 350.603 53.2374 345.239 62.4295V112.22C345.239 123.901 346.197 128.88 358.842 128.88V133.285H313.436V128.88Z" fill="#1D2729"/>
<path d="M515.559 85.4096C515.559 72.0567 511.067 60.591 503.101 52.4719C495.146 44.3594 483.588 39.4495 469.195 39.4495C454.899 39.4495 443.391 44.3572 435.457 52.47C427.516 60.5896 423.023 72.0567 423.023 85.4096C423.023 98.763 427.516 110.23 435.457 118.35C443.391 126.462 454.899 131.37 469.195 131.37V133.285C439.922 133.285 421.398 113.302 421.111 86.055L421.107 85.4096C421.107 57.8334 439.691 37.5345 469.195 37.5345L469.889 37.5382C499.179 37.8521 517.475 58.0489 517.475 85.4096L517.47 86.055C517.183 113.302 498.657 133.285 469.195 133.285V131.37C483.588 131.37 495.146 126.46 503.101 118.348C511.067 110.229 515.559 98.7625 515.559 85.4096ZM469.004 40.7899C479.881 40.7899 487.679 46.6454 492.665 55.1155C497.603 63.5124 499.845 74.5472 499.849 85.3929C499.945 96.5435 497.656 107.593 492.708 115.926C487.722 124.324 479.972 130.03 469.387 130.03C458.595 130.03 450.848 124.166 445.892 115.7C440.979 107.305 438.735 96.2726 438.733 85.4269L438.731 84.3822C438.778 73.595 441.03 62.9743 445.774 54.9011C450.711 46.5 458.413 40.7899 469.004 40.7899ZM469.004 42.7049C449.462 42.7049 440.457 63.5785 440.649 85.4096L440.655 86.4059C440.925 107.165 449.633 127.785 468.922 128.111L469.387 128.115C488.929 128.114 498.125 107.241 497.933 85.4096C497.933 64.3191 489.259 43.0403 469.473 42.7091L469.004 42.7049Z" fill="#1D2729"/>
<path d="M563.264 133.285C544.68 133.285 531.653 120.646 531.653 101.113V65.8765C531.653 53.0459 527.629 47.8754 517.475 48.8329V44.4285L543.148 39.4495L549.279 43.2795V98.0487C549.279 113.56 555.409 125.433 568.054 125.433C578.591 125.433 585.488 120.263 589.895 107.049V65.8765C589.895 53.0459 586.063 47.8754 575.909 48.8329V44.4285L601.582 39.4495L607.521 43.2795V104.56C607.521 120.071 612.885 120.454 621.698 118.348V122.752L598.516 132.136L589.895 129.072V117.582L588.937 117.39C582.998 128.88 573.802 133.285 563.264 133.285Z" fill="#1D2729"/>
<path d="M669.403 133.285C655.609 133.285 642.006 123.327 637.217 129.455H631.661L629.362 98.0487L635.684 97.6657C641.048 117.199 653.31 128.497 668.254 128.497C679.557 128.497 686.263 121.603 686.263 111.454C686.263 99.3892 671.702 95.3677 658.483 90.0057C643.156 84.2606 629.745 77.9411 629.745 63.1955C629.745 46.7265 646.604 37.5345 662.123 37.5345C680.132 37.5345 685.113 45.003 691.244 41.3645H696.417L699.291 65.302L693.16 65.685C688.562 49.7904 678.216 42.322 666.338 42.322C655.801 42.322 647.371 47.8754 647.371 58.4079C647.371 67.217 655.992 71.43 672.277 77.7496C690.095 84.6436 702.739 91.1547 702.739 106.666C702.739 123.327 687.221 133.285 669.403 133.285Z" fill="#1D2729"/>
<path d="M757.533 133.285C732.052 133.285 710.403 112.794 710.403 84.8351C710.403 58.2164 729.753 37.5345 758.108 37.5345C776.5 37.5345 795.276 49.0244 795.276 69.898C795.276 76.7921 793.743 80.4306 787.804 80.4306H730.519C730.136 115.475 743.93 124.667 761.365 124.667C776.5 124.667 790.103 112.794 791.636 94.9847L796.808 96.3252C795.276 115.475 780.907 133.285 757.533 133.285ZM769.412 75.2601C774.968 75.2601 776.692 72.0045 776.692 65.4935C776.692 54.7694 767.496 41.7475 757.15 41.7475C744.697 41.7475 734.16 54.7694 731.094 75.2601H769.412Z" fill="#1D2729"/>
</g>
<defs>
<clipPath id="clip0_572_13">
<rect width="797" height="169" fill="white"/>
</clipPath>
</defs>
</svg>
