<svg width="236" height="237" viewBox="0 0 236 237" fill="none" xmlns="http://www.w3.org/2000/svg">
<line y1="-1" x2="239.848" y2="-1" transform="matrix(-0.769621 0.638501 0.638501 0.769621 186.592 83.5714)" stroke="#A5B997" stroke-width="2"/>
<line x1="186.021" y1="83.9382" x2="174.021" y2="26.2035" stroke="#A5B997" stroke-width="2"/>
<line x1="223" y1="136" x2="122" y2="136" stroke="#A5B997" stroke-width="2"/>
<line y1="-1" x2="88.3607" y2="-1" transform="matrix(-0.371391 -0.928477 -0.928477 0.371391 64.6528 183.979)" stroke="#A5B997" stroke-width="2"/>
<ellipse cx="7.52041" cy="7.52041" rx="7.52041" ry="7.52041" transform="matrix(-1 0 0 1 39.0408 91)" fill="#A5B997"/>
<ellipse cx="7.52041" cy="7.52041" rx="7.52041" ry="7.52041" transform="matrix(-1 0 0 1 230.041 129)" fill="#A5B997"/>
<ellipse cx="8.88776" cy="8.88776" rx="8.88776" ry="8.88776" transform="matrix(-1 0 0 1 130.776 126)" fill="#A5B997"/>
<ellipse cx="6.15306" cy="6.15306" rx="6.15306" ry="6.15306" transform="matrix(-1 0 0 1 235.306 0)" fill="#A5B997"/>
<line x1="174.668" y1="25.0567" x2="228.668" y2="6.05669" stroke="#A5B997" stroke-width="2"/>
<circle cx="6" cy="6" r="6" transform="matrix(-1 0 0 1 178 20)" fill="#A5B997"/>
<ellipse cx="6.15306" cy="6.15306" rx="6.15306" ry="6.15306" transform="matrix(-1 0 0 1 193.306 78)" fill="#A5B997"/>
</svg>
