<svg width="194" height="202" viewBox="0 0 194 202" fill="none" xmlns="http://www.w3.org/2000/svg">
<line y1="-1" x2="168.4" y2="-1" transform="matrix(0.785304 -0.619111 -0.657671 -0.753305 59.7551 104.258)" stroke="#A5B997" stroke-width="2"/>
<line y1="-1" x2="98.5408" y2="-1" transform="matrix(-0.328052 0.94466 0.954184 0.299221 62.6938 104.258)" stroke="#A5B997" stroke-width="2"/>
<line y1="-1" x2="57.5561" y2="-1" transform="matrix(0.970126 -0.2426 -0.266885 -0.963728 5.87744 117.29)" stroke="#A5B997" stroke-width="2"/>
<line y1="-1" x2="60.599" y2="-1" transform="matrix(0.387964 0.921675 0.93475 -0.355306 128.327 52.129)" stroke="#A5B997" stroke-width="2"/>
<ellipse cx="5.38776" cy="5.11982" rx="5.38776" ry="5.11982" transform="matrix(1 0 0 -1 145.959 115.429)" fill="#A5B997"/>
<ellipse cx="5.38776" cy="5.11982" rx="5.38776" ry="5.11982" transform="matrix(1 0 0 -1 0 122.876)" fill="#A5B997"/>
<ellipse cx="6.36735" cy="6.05069" rx="6.36735" ry="6.05069" transform="matrix(1 0 0 -1 53.8777 111.705)" fill="#A5B997"/>
<ellipse cx="4.40816" cy="4.18894" rx="4.40816" ry="4.18894" transform="matrix(1 0 0 -1 24.4897 202)" fill="#A5B997"/>
</svg>
