<svg width="249" height="184" viewBox="0 0 249 184" fill="none" xmlns="http://www.w3.org/2000/svg">
<line x1="153.275" y1="136.4" x2="244.245" y2="103.016" stroke="#A5B997" stroke-width="2"/>
<line x1="69.0378" y1="123.768" x2="5.2939" y2="78.1523" stroke="#A5B997" stroke-width="2"/>
<line y1="-1" x2="57.5561" y2="-1" transform="matrix(0.579974 0.814635 0.799814 -0.600248 121.043 87.3547)" stroke="#A5B997" stroke-width="2"/>
<ellipse cx="4.40816" cy="4.18894" rx="4.40816" ry="4.18894" transform="matrix(0.342192 0.93963 0.93963 -0.342192 114.62 83.8212)" fill="#A5B997"/>
<line x1="69.8776" y1="123.326" x2="149.923" y2="136.255" stroke="#A5B997" stroke-width="2"/>
<ellipse cx="5.38776" cy="5.11982" rx="5.38776" ry="5.11982" transform="matrix(0.342192 0.93963 0.93963 -0.342192 146.62 133.458)" fill="#A5B997"/>
<ellipse cx="5.38776" cy="5.11982" rx="5.38776" ry="5.11982" transform="matrix(0.342192 0.93963 0.93963 -0.342192 234.62 100.458)" fill="#A5B997"/>
<ellipse cx="6.36735" cy="6.05069" rx="6.36735" ry="6.05069" transform="matrix(0.342192 0.93963 0.93963 -0.342192 61.6198 119.095)" fill="#A5B997"/>
<ellipse cx="4.40816" cy="4.18894" rx="4.40816" ry="4.18894" transform="matrix(0.342192 0.93963 0.93963 -0.342192 0 76.0885)" fill="#A5B997"/>
</svg>
