<svg width="203" height="216" viewBox="0 0 203 216" fill="none" xmlns="http://www.w3.org/2000/svg">
<line y1="-1" x2="177.751" y2="-1" transform="matrix(-0.778865 -0.627192 0.649735 -0.760161 140.444 111.484)" stroke="#A5B997" stroke-width="2"/>
<line y1="-1" x2="105.135" y2="-1" transform="matrix(0.32189 0.946777 -0.952339 0.305042 137.367 111.484)" stroke="#A5B997" stroke-width="2"/>
<line y1="-1" x2="60.3309" y2="-1" transform="matrix(-0.968892 -0.247483 0.261674 -0.965156 196.847 125.419)" stroke="#A5B997" stroke-width="2"/>
<line y1="-1" x2="64.5961" y2="-1" transform="matrix(-0.381017 0.924568 -0.932205 -0.361931 68.6581 55.7419)" stroke="#A5B997" stroke-width="2"/>
<ellipse cx="44.5587" cy="117.954" rx="5.64031" ry="5.47465" transform="rotate(180 44.5587 117.954)" fill="#A5B997"/>
<ellipse cx="197.36" cy="125.917" rx="5.64031" ry="5.47465" transform="rotate(180 197.36 125.917)" fill="#A5B997"/>
<ellipse cx="139.931" cy="112.977" rx="6.66582" ry="6.47005" transform="rotate(180 139.931 112.977)" fill="#A5B997"/>
<ellipse cx="172.747" cy="211.521" rx="4.6148" ry="4.47926" transform="rotate(180 172.747 211.521)" fill="#A5B997"/>
</svg>
